 <svg version="1.0" xmlns="http://www.w3.org/2000/svg"  width="300.000000pt" height="212.000000pt" viewBox="0 0 300.000000 212.000000"  preserveAspectRatio="xMidYMid meet">  <g transform="translate(0.000000,212.000000) scale(0.100000,-0.100000)" fill="#000000" stroke="none"> <path d="M1370 1800 c-10 -6 -4 -8 21 -4 22 4 46 1 62 -7 14 -8 134 -115 267 -238 l242 -225 -83 -75 c-45 -42 -86 -76 -90 -76 -4 0 -91 78 -194 173 l-185 173 -146 -126 -145 -126 -37 30 c-20 16 -59 52 -86 79 l-48 50 38 34 c22 19 104 92 184 163 142 124 211 189 165 154 -11 -9 -101 -87 -200 -174 -99 -87 -184 -162 -190 -167 -9 -8 122 -150 158 -169 14 -8 43 12 161 115 l144 126 159 -146 c87 -81 172 -160 190 -177 l32 -30 91 83 c50 46 89 86 88 90 -6 13 -474 443 -503 461 -33 21 -71 24 -95 9z"/> <path d="M2273 1530 c41 -8 42 -8 299 -219 98 -79 180 -153 184 -164 3 -10 8 -17 10 -14 14 14 -30 56 -220 211 -116 95 -221 178 -233 184 -12 7 -34 11 -50 11 -24 -1 -22 -2 10 -9z"/> <path d="M457 1315 c-129 -118 -237 -222 -241 -230 -16 -43 -6 -87 28 -121 19 -19 42 -34 52 -34 13 1 8 5 -12 14 -72 31 -87 113 -31 170 66 69 432 399 452 407 15 6 16 8 3 8 -9 1 -122 -96 -251 -214z"/> <path d="M781 1517 c15 -7 144 -121 287 -254 213 -199 262 -249 271 -280 l11 -38 -5 34 c-3 19 -13 44 -23 54 -59 67 -535 497 -549 497 -13 -1 -10 -4 8 -13z"/> <path d="M1954 1288 c-142 -133 -267 -253 -276 -267 -28 -41 -23 -86 13 -123 l31 -33 -26 33 c-34 44 -34 91 0 132 23 26 351 336 486 458 26 23 44 42 39 42 -4 0 -125 -109 -267 -242z"/> <path d="M630 1172 c-215 -198 -245 -227 -225 -212 17 13 114 99 288 258 l47 43 156 -143 c246 -225 284 -258 297 -258 7 1 2 6 -10 13 -12 7 -70 57 -130 113 -155 144 -310 284 -314 284 -2 0 -51 -44 -109 -98z"/> <path d="M2110 1123 c-80 -75 -175 -165 -213 -200 -37 -34 -65 -63 -62 -63 6 0 379 345 409 379 41 45 5 15 -134 -116z"/> <path d="M2275 1253 c6 -5 30 -25 55 -43 25 -19 98 -76 162 -127 121 -96 173 -129 71 -45 -113 94 -329 255 -288 215z"/> <path d="M1630 1160 c0 -7 -3 -10 -6 -7 -9 9 -46 -12 -39 -23 3 -5 -6 -25 -20 -46 -14 -20 -25 -42 -25 -48 1 -6 9 4 18 21 10 18 32 49 51 68 18 20 31 39 27 42 -3 4 -6 0 -6 -7z"/> <path d="M2772 1090 c0 -19 2 -27 5 -17 2 9 2 25 0 35 -3 9 -5 1 -5 -18z"/> <path d="M1491 1068 c-24 -24 -48 -52 -53 -63 -6 -11 -9 -18 -6 -15 2 3 28 31 58 63 62 67 63 76 1 15z"/> <path d="M2744 1022 c-15 -19 -35 -28 -70 -33 l-49 -6 42 -2 c34 -1 49 5 75 28 18 16 31 31 28 34 -3 2 -14 -7 -26 -21z"/> <path d="M1532 995 c0 -16 2 -22 5 -12 2 9 2 23 0 30 -3 6 -5 -1 -5 -18z"/> <path d="M1411 944 c0 -11 3 -14 6 -6 3 7 2 16 -1 19 -3 4 -6 -2 -5 -13z"/> <path d="M1531 944 c0 -11 3 -14 6 -6 3 7 2 16 -1 19 -3 4 -6 -2 -5 -13z"/> <path d="M1316 913 c-10 -14 -33 -31 -50 -39 -17 -7 -26 -13 -19 -14 23 0 63 23 79 47 21 33 14 37 -10 6z"/> <path d="M1402 890 c0 -19 2 -27 5 -17 2 9 2 25 0 35 -3 9 -5 1 -5 -18z"/> <path d="M1540 916 c0 -23 56 -87 108 -124 66 -46 111 -92 141 -142 11 -19 21 -30 21 -24 0 20 -56 89 -105 130 -105 88 -129 110 -147 139 -10 17 -18 26 -18 21z"/> <path d="M1741 859 c13 -8 88 -14 78 -5 -2 2 -24 6 -48 9 -29 4 -40 2 -30 -4z"/> <path d="M965 813 c11 -3 28 -12 38 -21 21 -19 23 -9 1 12 -8 9 -25 15 -37 15 -20 -1 -21 -2 -2 -6z"/> <path d="M1420 814 c0 -19 78 -120 115 -148 20 -16 45 -42 56 -60 10 -17 19 -25 19 -17 0 7 -32 46 -72 87 -40 40 -83 91 -95 111 -13 21 -23 33 -23 27z"/> <path d="M922 798 c-7 -7 -11 -23 -11 -37 l2 -26 4 25 c3 14 10 31 15 38 13 15 6 16 -10 0z"/> <path d="M1925 556 c0 -213 2 -250 15 -253 11 -3 12 -2 3 4 -9 7 -13 74 -16 253 l-3 245 1 -249z"/> <path d="M2070 789 c0 -5 -4 -8 -8 -5 -4 3 -4 -14 2 -38 l10 -42 51 0 52 1 -8 30 c-5 18 -5 33 1 39 7 7 10 0 10 -20 0 -43 10 -51 63 -51 45 -1 48 1 54 28 3 16 9 29 13 29 10 0 7 -44 -4 -51 -5 -4 8 -6 28 -6 33 1 36 4 36 29 0 15 4 28 8 28 5 0 8 -12 7 -27 -2 -16 0 -19 2 -8 5 19 20 34 34 35 3 0 4 -12 1 -27 -5 -25 -6 -26 -14 -8 -7 19 -8 19 -5 1 4 -32 27 -31 28 1 l1 28 8 -30 c7 -28 8 -28 9 -5 1 39 -11 49 -60 47 -43 -1 -45 -2 -41 -29 3 -17 0 -28 -7 -28 -7 0 -9 5 -5 12 4 7 3 8 -4 4 -7 -4 -12 -1 -12 9 0 10 5 13 13 9 8 -5 8 -2 -2 9 -7 9 -20 17 -27 17 -8 0 -11 6 -8 15 9 22 -18 19 -38 -4 -11 -13 -13 -22 -6 -29 12 -12 4 -42 -12 -42 -6 0 -8 6 -4 13 4 6 4 9 -1 5 -4 -4 -15 -2 -24 5 -14 11 -14 10 -2 -5 9 -12 10 -18 2 -18 -6 0 -14 7 -18 16 -7 19 11 41 21 25 4 -6 12 -11 17 -11 17 0 0 18 -32 34 -26 13 -33 13 -44 2 -10 -9 -11 -16 -3 -24 12 -12 4 -42 -12 -42 -6 0 -8 5 -4 12 4 6 3 8 -4 4 -6 -3 -14 -1 -18 5 -5 9 -11 6 -21 -7 -13 -17 -14 -15 -11 29 2 26 0 47 -4 47 -5 0 -8 -5 -8 -11z m215 -21 c-1 -13 -3 -32 -5 -43 -1 -16 -4 -14 -10 8 -9 29 -4 57 10 57 4 0 6 -10 5 -22z"/> <path d="M2000 745 c0 -33 4 -45 15 -45 8 0 15 8 15 18 0 15 -2 15 -11 2 -8 -11 -9 -4 -7 28 2 23 0 42 -4 42 -5 0 -8 -20 -8 -45z"/> <path d="M2025 770 c-8 -13 13 -40 29 -39 7 0 7 2 -1 5 -7 3 -10 11 -7 19 7 16 -12 29 -21 15z"/> <path d="M381 754 c54 -17 97 -55 105 -93 9 -42 12 -47 13 -23 2 55 -59 114 -129 126 -28 4 -26 2 11 -10z"/> <path d="M655 755 c-40 -14 -95 -65 -95 -87 0 -7 11 4 25 25 14 20 27 37 28 37 17 3 108 39 97 39 -8 0 -33 -6 -55 -14z"/> <path d="M1198 763 c6 -2 18 -2 25 0 6 3 1 5 -13 5 -14 0 -19 -2 -12 -5z"/> <path d="M2110 755 c7 -8 17 -15 22 -15 6 0 5 7 -2 15 -7 8 -17 15 -22 15 -6 0 -5 -7 2 -15z"/> <path d="M2456 763 c6 -2 10 -16 9 -31 -2 -15 0 -18 2 -7 8 33 20 38 15 7 l-4 -29 68 1 c63 1 91 14 65 30 -6 4 -8 12 -5 19 3 8 -11 12 -46 13 -42 1 -48 -1 -39 -12 13 -16 33 -19 24 -4 -11 17 7 11 21 -7 13 -17 14 -17 7 2 -6 18 -5 19 11 6 19 -16 13 -25 -23 -36 -18 -5 -22 -4 -16 5 5 8 4 11 -3 6 -6 -3 -14 -1 -18 5 -5 9 -11 6 -22 -7 -13 -18 -14 -17 -9 12 6 29 4 31 -21 31 -15 0 -22 -2 -16 -4z m154 -43 c0 -5 -5 -10 -11 -10 -5 0 -7 5 -4 10 3 6 8 10 11 10 2 0 4 -4 4 -10z"/> <path d="M269 731 c-16 -16 -29 -35 -29 -43 1 -7 8 0 16 15 9 16 30 35 47 42 20 9 25 14 14 15 -10 0 -32 -13 -48 -29z"/> <path d="M738 753 c7 -3 16 -2 19 1 4 3 -2 6 -13 5 -11 0 -14 -3 -6 -6z"/> <path d="M1109 721 c-16 -16 -29 -35 -29 -43 0 -7 5 -4 11 7 6 11 23 30 38 42 14 13 22 23 18 23 -5 0 -22 -13 -38 -29z"/> <path d="M1295 727 l30 -25 -29 -31 c-28 -29 -31 -30 -48 -14 -10 9 -21 13 -25 10 -3 -4 -1 -7 6 -7 6 0 15 -9 19 -20 7 -18 10 -17 47 15 44 37 43 54 -6 83 -18 11 -16 8 6 -11z"/> <path d="M816 709 c16 -20 31 -34 33 -32 3 2 -10 18 -29 36 l-34 32 30 -36z"/> <path d="M1000 725 c-7 -8 -22 -15 -33 -15 -11 0 -18 -3 -14 -6 10 -11 54 5 61 21 7 19 2 19 -14 0z"/> <path d="M910 522 c0 -169 1 -183 20 -202 11 -11 27 -20 36 -20 21 0 54 19 54 31 0 6 -7 3 -16 -5 -20 -20 -48 -20 -69 0 -13 14 -16 42 -15 191 1 96 -1 177 -4 180 -3 4 -6 -75 -6 -175z"/> <path d="M1005 691 c-6 -5 -21 -11 -35 -14 -14 -2 -8 -3 12 -2 l38 3 3 -166 3 -167 2 178 c1 97 -2 177 -6 177 -4 0 -12 -4 -17 -9z"/> <path d="M232 503 c-1 -101 -6 -174 -12 -178 -27 -16 -3 -25 70 -25 73 0 97 9 70 25 -5 3 -10 34 -10 68 l0 62 50 18 c53 19 101 73 99 112 -1 13 -4 10 -10 -11 -13 -44 -56 -83 -106 -97 l-43 -11 0 -66 c0 -38 5 -71 12 -78 9 -9 -4 -12 -61 -12 -61 0 -72 2 -62 14 8 9 11 66 8 182 l-3 169 -2 -172z"/> <path d="M358 663 c7 -3 16 -2 19 1 4 3 -2 6 -13 5 -11 0 -14 -3 -6 -6z"/> <path d="M676 654 c-9 -8 -15 -30 -15 -47 l2 -32 6 35 c4 23 14 39 31 47 17 9 20 13 8 13 -9 0 -24 -7 -32 -16z"/> <path d="M1170 649 c-7 -11 -9 -23 -6 -27 3 -3 6 0 6 6 0 6 7 18 16 26 8 9 11 16 5 16 -6 0 -15 -9 -21 -21z"/> <path d="M2040 650 c0 -14 -5 -20 -17 -18 -14 2 -18 -4 -18 -27 0 -26 4 -30 30 -33 17 -1 26 1 20 5 -5 4 -9 17 -9 28 1 11 2 29 3 40 1 17 3 18 12 5 9 -12 10 -12 7 -1 -7 24 -28 25 -28 1z m-8 -34 c6 4 8 -1 6 -11 -6 -31 -28 -30 -27 2 0 15 3 22 6 15 2 -6 9 -9 15 -6z"/> <path d="M2180 666 c0 -2 7 -7 16 -10 8 -3 12 -2 9 4 -6 10 -25 14 -25 6z"/> <path d="M2335 661 c-3 -5 -1 -12 5 -16 5 -3 10 -21 9 -38 0 -18 -3 -26 -6 -19 -2 6 -9 12 -14 12 -6 0 -7 -6 -3 -12 5 -10 4 -10 -6 -1 -15 14 -5 47 11 37 8 -4 9 -3 5 5 -11 18 -39 -8 -33 -30 3 -10 0 -20 -7 -23 -6 -2 6 -4 26 -3 22 0 39 6 43 14 7 21 -5 63 -19 63 -6 0 -4 5 4 10 9 6 10 10 3 10 -6 0 -14 -4 -18 -9z"/> <path d="M2390 659 c0 -7 7 -17 16 -23 13 -10 20 -28 23 -58 2 -21 30 -4 34 20 l4 27 2 -27 c1 -28 14 -37 26 -17 4 5 4 22 0 37 -4 15 -10 21 -12 14 -3 -9 -9 -10 -17 -3 -8 7 -12 3 -14 -16 -3 -39 -12 -42 -12 -4 0 18 -4 30 -9 27 -5 -3 -14 0 -20 8 -9 11 -9 15 1 19 8 4 7 6 -4 6 -10 1 -18 -4 -18 -10z m97 -71 c-3 -7 -5 -2 -5 12 0 14 2 19 5 13 2 -7 2 -19 0 -25z"/> <path d="M396 647 c3 -10 9 -15 12 -12 3 3 0 11 -7 18 -10 9 -11 8 -5 -6z"/> <path d="M1073 625 c0 -22 2 -30 4 -17 2 12 2 30 0 40 -3 9 -5 -1 -4 -23z"/> <path d="M550 495 c-3 -88 -9 -168 -14 -178 -8 -17 -3 -18 60 -15 l69 3 3 83 3 82 39 0 39 0 3 -82 3 -83 59 -3 c65 -3 87 7 59 29 -16 13 -17 12 -4 -3 12 -17 9 -18 -47 -18 l-61 0 -3 83 -3 82 -47 3 -48 3 0 -85 0 -86 -60 0 c-57 0 -60 1 -50 20 6 12 9 78 8 172 l-3 153 -5 -160z"/> <path d="M2171 645 c-2 -29 39 -42 46 -15 4 13 3 13 -6 0 -8 -11 -11 -12 -11 -2 0 7 -4 11 -9 8 -5 -4 -12 0 -14 6 -3 7 -6 9 -6 3z"/> <path d="M2073 627 c-3 -6 -1 -7 5 -3 7 4 12 1 12 -8 0 -8 -5 -18 -10 -21 -6 -4 -8 -11 -5 -16 8 -12 42 -12 49 0 4 5 -5 8 -19 7 -13 -2 -22 1 -19 5 3 5 14 9 25 9 29 0 20 33 -9 35 -13 1 -26 -3 -29 -8z"/> <path d="M2229 617 c-6 -9 -7 -21 -4 -26 3 -5 0 -11 -7 -13 -7 -3 4 -5 25 -6 34 -1 36 0 25 18 -10 16 -10 22 1 32 11 11 13 9 8 -9 -3 -13 -2 -23 3 -23 4 0 10 10 12 23 4 20 0 23 -25 22 -17 0 -33 -7 -38 -18z m23 -12 c3 -14 1 -25 -3 -25 -5 0 -9 11 -9 25 0 14 2 25 4 25 2 0 6 -11 8 -25z"/> <path d="M311 618 c-1 -20 32 -58 50 -58 17 0 49 20 49 31 0 6 -7 3 -16 -5 -27 -27 -56 -17 -73 24 -7 18 -10 20 -10 8z"/> <path d="M751 603 c-1 -31 -3 -32 -48 -36 l-48 -3 48 -2 c51 -2 62 8 54 50 -3 18 -5 16 -6 -9z"/> <path d="M2384 615 c-3 -8 -3 -18 0 -24 3 -5 0 -12 -6 -14 -7 -3 1 -5 17 -5 17 0 24 2 17 5 -6 2 -9 10 -6 15 4 7 2 8 -4 4 -7 -4 -12 -1 -12 9 0 10 5 13 12 9 7 -4 8 -3 4 4 -10 16 -15 15 -22 -3z"/> <path d="M864 485 c0 -77 2 -107 3 -67 2 40 2 103 0 140 -2 37 -3 4 -3 -73z"/> <path d="M1179 598 c7 -10 25 -17 40 -17 l26 2 -25 4 c-14 3 -32 10 -40 16 -13 11 -13 10 -1 -5z"/> <path d="M2175 590 c-4 -6 -11 -8 -16 -5 -5 4 -9 1 -9 -4 0 -6 7 -11 15 -11 8 0 15 4 15 9 0 5 8 12 18 14 15 4 15 5 0 6 -9 0 -20 -4 -23 -9z"/> <path d="M1265 568 c11 -6 29 -18 40 -27 12 -9 8 -4 -7 12 -16 15 -34 27 -41 27 -6 0 -3 -6 8 -12z"/> <path d="M1822 560 c0 -14 2 -19 5 -12 2 6 2 18 0 25 -3 6 -5 1 -5 -13z"/> <path d="M1110 525 c13 -14 26 -25 28 -25 3 0 -5 11 -18 25 -13 14 -26 25 -28 25 -3 0 5 -11 18 -25z"/> <path d="M2260 492 l0 -49 43 -1 c23 0 36 2 29 5 -6 2 -10 8 -8 12 3 4 -1 8 -9 8 -8 0 -12 -4 -9 -9 3 -4 0 -8 -5 -8 -6 0 -11 6 -11 13 0 8 -4 7 -11 -3 -7 -11 -9 -3 -7 33 2 26 0 47 -4 47 -5 0 -8 -22 -8 -48z"/> <path d="M2029 518 c0 -2 -2 -16 -4 -33 -4 -24 -3 -26 5 -10 9 20 9 20 10 0 1 -12 4 -15 7 -7 3 7 -1 20 -9 29 -11 14 -11 16 2 11 8 -2 18 -19 22 -37 8 -30 11 -32 51 -29 33 3 43 8 45 23 2 11 9 25 14 30 8 7 9 5 5 -6 -4 -13 -1 -15 14 -12 26 7 24 16 -6 30 -14 6 -23 7 -20 3 3 -5 1 -11 -5 -15 -5 -3 -11 -16 -11 -28 -1 -14 -4 -9 -9 13 l-7 35 -8 -32 c-4 -18 -12 -33 -17 -33 -5 0 -6 6 -2 13 5 8 2 8 -9 -2 -9 -7 -17 -12 -18 -10 -7 34 -6 37 8 32 8 -3 19 0 23 8 10 15 4 29 -13 29 -7 0 -6 -4 3 -10 12 -8 9 -10 -12 -7 -15 1 -30 6 -34 10 -7 7 -23 10 -25 5z"/> <path d="M2203 509 c18 -11 24 -59 6 -59 -5 0 -7 6 -3 13 6 9 5 9 -8 0 -8 -7 -19 -9 -23 -5 -5 4 -5 1 -1 -5 4 -7 18 -13 32 -13 20 0 24 5 24 28 0 29 -16 52 -34 52 -6 0 -3 -5 7 -11z"/> <path d="M2310 516 c0 -2 7 -7 16 -10 8 -3 12 -2 9 4 -6 10 -25 14 -25 6z"/> <path d="M1337 458 c5 -64 -20 -112 -70 -133 -17 -8 -25 -14 -16 -15 23 0 67 36 84 70 16 31 20 97 6 118 -4 7 -6 -10 -4 -40z"/> <path d="M2003 465 c0 -27 2 -38 4 -22 2 15 2 37 0 50 -2 12 -4 0 -4 -28z"/> <path d="M2296 495 c4 -8 12 -15 20 -15 20 0 17 7 -6 20 -16 9 -18 8 -14 -5z"/> <path d="M1197 483 c13 -2 30 -14 38 -26 8 -12 15 -16 15 -10 0 19 -30 43 -53 42 -22 -2 -22 -2 0 -6z"/> <path d="M1822 455 c0 -16 2 -22 5 -12 2 9 2 23 0 30 -3 6 -5 -1 -5 -18z"/> <path d="M1506 387 c-44 -45 -66 -71 -50 -60 34 25 113 104 126 127 13 23 11 21 -76 -67z"/> <path d="M1122 417 c-18 -18 -32 -38 -32 -44 0 -16 58 -63 78 -63 9 0 2 8 -17 18 -55 27 -61 46 -27 81 27 28 30 29 42 13 7 -9 14 -15 17 -12 2 3 -3 13 -12 22 -16 17 -19 16 -49 -15z"/> <path d="M2020 433 c0 -11 3 -14 8 -7 4 6 14 14 22 17 10 4 8 6 -7 6 -16 1 -23 -5 -23 -16z"/> <path d="M2004 396 c-9 -23 0 -79 14 -84 8 -2 12 11 12 47 0 48 -14 68 -26 37z m13 -58 c-2 -13 -4 -3 -4 22 0 25 2 35 4 23 2 -13 2 -33 0 -45z"/> <path d="M2148 393 c-3 -13 -12 -23 -20 -23 -10 0 -9 3 2 10 8 5 10 10 5 10 -6 0 -16 -5 -23 -12 -8 -8 -15 -8 -24 -1 -17 13 -52 13 -39 0 5 -5 6 -21 1 -38 -5 -17 -5 -29 1 -29 5 0 9 12 10 28 1 26 1 26 8 3 5 -18 14 -24 41 -26 19 -2 28 -1 18 2 -18 4 -31 30 -23 43 8 14 47 -1 41 -16 -8 -21 13 -28 84 -31 42 -2 60 1 50 7 -8 5 -18 6 -24 3 -5 -3 -6 -1 -2 6 4 6 13 8 19 5 7 -4 9 -4 5 1 -4 4 -3 14 4 22 6 8 7 13 2 12 -21 -4 -28 2 -14 11 8 5 10 10 4 10 -6 0 -17 -7 -24 -16 -8 -8 -9 -14 -4 -13 21 4 23 -2 7 -21 -10 -11 -28 -20 -40 -20 -18 0 -23 6 -24 28 0 15 -4 36 -9 47 -7 15 -9 8 -11 -30 l-2 -50 -6 50 c-5 38 -8 45 -13 28z m-61 -49 c1 -25 0 -26 -4 -4 -3 14 -10 29 -17 33 -7 6 -6 7 4 4 8 -2 16 -16 17 -33z"/> <path d="M2297 403 c-4 -3 -2 -12 4 -19 6 -8 9 -27 7 -44 -5 -34 7 -41 17 -10 4 12 0 31 -9 45 -12 18 -12 25 -3 28 7 3 7 6 1 6 -6 1 -14 -2 -17 -6z"/> <path d="M2353 393 c0 -7 5 -13 11 -13 5 0 3 -6 -6 -12 -25 -20 -27 -53 -3 -54 13 -1 14 0 4 3 -11 3 -15 11 -12 23 7 26 33 35 33 11 0 -25 28 -49 34 -30 13 40 14 42 15 16 1 -35 25 -32 28 4 l2 24 -8 -25 c-8 -22 -9 -22 -10 -4 -1 11 -7 26 -13 33 -11 11 -10 13 5 8 11 -4 16 -3 12 3 -6 10 -33 9 -52 -3 -13 -8 -27 8 -19 21 3 5 -1 9 -8 9 -7 0 -13 -6 -13 -14z m59 -48 c-6 -34 -12 -32 -12 6 0 16 4 28 9 25 4 -3 6 -17 3 -31z"/> <path d="M2490 395 c-7 -8 -10 -18 -6 -22 3 -3 6 0 6 8 0 12 2 11 11 -1 9 -13 10 -12 5 3 -3 11 0 17 10 17 8 0 12 -4 9 -10 -3 -5 -1 -10 5 -10 17 0 6 24 -12 28 -8 2 -21 -4 -28 -13z"/> <path d="M2660 402 c0 -5 7 -9 15 -9 8 0 15 4 15 9 0 4 -7 8 -15 8 -8 0 -15 -4 -15 -8z"/> <path d="M2746 368 c-4 -27 -13 -48 -18 -48 -5 0 -6 6 -2 13 5 8 2 8 -9 -2 -9 -7 -17 -12 -18 -10 -7 33 -6 36 11 32 10 -3 20 2 23 11 6 16 -10 33 -20 22 -4 -3 -1 -6 6 -6 7 0 9 -5 6 -10 -5 -8 -11 -7 -20 0 -19 15 -67 20 -82 8 -7 -6 -19 -5 -32 3 -17 11 -23 10 -39 -4 -10 -9 -23 -14 -27 -10 -5 5 -3 0 4 -9 16 -21 7 -38 -20 -38 -11 0 -17 5 -14 10 3 6 1 10 -5 10 -18 0 -6 -25 14 -28 23 -5 46 16 47 42 1 19 2 18 9 -4 7 -21 8 -22 10 -5 1 20 1 20 9 0 6 -15 3 -21 -13 -27 -21 -6 -21 -6 1 -7 12 -1 25 4 28 9 4 7 11 7 18 2 7 -5 46 -9 87 -8 l75 1 1 50 2 50 -7 -50 -7 -50 -5 50 -4 50 -9 -47z m-149 -18 c1 -21 1 -21 -3 -3 -3 12 -13 24 -22 27 -12 3 -11 4 3 3 14 -2 21 -10 22 -27z m43 20 c-13 -8 -12 -10 3 -10 19 0 20 -2 11 -24 -8 -20 -33 -21 -40 -1 -7 17 12 45 30 45 6 0 4 -5 -4 -10z m37 -37 c-3 -10 -5 -2 -5 17 0 19 2 27 5 18 2 -10 2 -26 0 -35z"/> <path d="M1785 351 c-17 -39 -19 -40 -74 -44 l-56 -3 57 -2 58 -2 20 41 c12 23 20 43 17 45 -2 2 -12 -14 -22 -35z"/> <path d="M2198 359 c5 -36 23 -33 34 6 4 16 3 24 -1 19 -5 -5 -11 -18 -14 -29 -4 -18 -5 -18 -6 2 0 12 -5 24 -9 27 -5 3 -6 -9 -4 -25z"/> <path d="M2502 346 c7 -8 15 -12 17 -11 5 6 -10 25 -20 25 -5 0 -4 -6 3 -14z"/> <path d="M1198 303 c6 -2 18 -2 25 0 6 3 1 5 -13 5 -14 0 -19 -2 -12 -5z"/> </g> </svg> 